<?xml version="1.0" encoding="UTF-8"?> <svg xmlns="http://www.w3.org/2000/svg" width="995" height="390" viewBox="0 0 995 390" fill="none"><path d="M22.0391 79.2142C22.0391 35.176 48.9055 8.98535 94.8316 8.98535C136.085 8.98535 164.159 34.7114 164.159 76.7364C164.159 114.948 138.149 142.455 98.7836 142.455C83.3257 142.455 69.9509 138.719 58.9512 131.266C58.9512 138.022 59.1848 144.313 59.1848 149.211V178.111H22.0391V79.2142ZM94.0723 109.973C114.689 109.973 127.169 97.3908 127.169 76.1944C127.169 54.998 112.879 41.9317 94.0723 41.9317C73.9809 41.893 59.2043 54.2818 59.2043 76.7364C59.2043 96.9262 74.4481 109.973 93.8971 109.973H94.0723Z" fill="#083F2A"></path><path d="M257.231 14.8857C296.362 14.8857 320.27 32.3075 320.27 69.4157C320.27 90.7089 309.484 109.505 287.933 116.958L326.869 178.011H284.039L250.203 123.016H219.053V178.011H181.674V14.8857H257.231ZM252.539 92.0252C272.222 92.0252 283.688 85.9663 283.688 70.1126C283.688 53.0974 272.436 47.0385 252.753 47.0385H219.034V92.0252H252.539Z" fill="#083F2A"></path><path d="M340.889 14.8857H378.151V177.992H340.889V14.8857Z" fill="#083F2A"></path><path d="M471.744 143.516L514.166 14.8857H551.895L496.586 177.992H445.403L388.691 14.8857H428.057L471.744 143.516Z" fill="#083F2A"></path><path d="M569.868 178.011H532.119L588.831 14.9053H640.383L697.796 178.011H658.664L646.71 141.426H582.056L569.868 178.011ZM592.608 109.505H636.197L614.626 43.0897L592.608 109.505Z" fill="#083F2A"></path><path d="M783.11 11.6396C803.727 11.6396 820.372 16.3048 830.457 22.596V59.317C821.326 52.0967 805.148 45.1087 786.4 45.1087C757.334 45.1087 733.835 61.8916 733.835 96.5995C733.835 128.984 753.518 147.626 785.621 147.626C803.435 147.626 821.248 142.264 831.314 135.508V170.1C822.183 175.694 803.182 181.288 782.642 181.288C728.968 181.288 695.463 152.388 695.463 97.3931C695.463 43.3278 732.258 11.6396 783.11 11.6396Z" fill="#083F2A"></path><path d="M851.068 171.023V132.869C867.335 143.157 886.166 148.728 905.443 148.955C933.809 148.955 947.865 136.605 947.865 115.409V105.537C939.669 114.151 927.014 119.087 908.5 119.087C868.434 119.087 845.461 97.6582 845.461 55.4783V14.8857H882.723V54.2782C882.723 77.8168 896.351 85.734 915.061 85.734C933.77 85.734 946.463 76.4037 946.463 53.8136V14.8857H983.453V115.332C983.453 160.299 957.21 181.515 908.461 181.515C885.741 181.495 867.227 178.243 851.068 171.023Z" fill="#083F2A"></path><path d="M931.484 217.397C949.718 217.397 964.5 232.178 964.5 250.412L964.5 326.381C964.5 344.615 949.718 359.397 931.484 359.397L569.516 359.396C551.282 359.396 536.5 344.615 536.5 326.381L536.5 250.412L536.511 249.56C536.963 231.72 551.567 217.396 569.516 217.396L931.484 217.397Z" stroke="#083F2A" stroke-width="25" stroke-miterlimit="10"></path><path d="M21.7969 207.378H80.611C138.724 207.378 173.417 233.239 173.417 289.163C173.417 341.428 138.724 370.464 80.611 370.464H21.7969V207.378ZM80.611 338.331C119.976 338.331 134.986 320.387 134.986 289.395C134.986 257.94 119.996 239.531 80.611 239.531H59.0205V338.254L80.611 338.331Z" fill="#083F2A"></path><path d="M208.826 370.504H171.096L227.807 207.398H279.36L336.772 370.504H297.641L285.687 333.919H221.013L208.826 370.504ZM231.565 301.998H275.135L253.584 235.583L231.565 301.998Z" fill="#083F2A"></path><path d="M344.033 363.515V325.284C360.3 335.572 379.131 341.143 398.408 341.37C426.774 341.37 440.83 329.02 440.83 307.824V298.029C432.633 306.643 419.979 311.579 401.465 311.579C361.399 311.579 338.426 290.131 338.426 247.971V207.378H375.688V246.751C375.688 270.29 389.316 278.207 408.025 278.207C426.735 278.207 439.428 268.877 439.428 246.286V207.378H476.418V307.804C476.418 352.772 450.175 373.988 401.426 373.988C378.725 373.988 360.211 370.735 344.033 363.515Z" fill="#083F2A"></path><path d="M574.123 331.121V318.237L615.892 287.315C619.168 284.598 622.164 281.602 624.881 278.326C627.598 275.01 628.956 271.774 628.956 268.618C628.916 264.423 627.897 261.686 625.9 260.408C623.942 259.089 620.087 258.43 614.334 258.43C608.301 258.43 604.166 259.349 601.929 261.187C599.692 263.025 598.573 266.301 598.573 271.015V273.052H573.883V271.015C573.883 262.306 577.439 255.374 584.55 250.22C591.702 245.027 601.709 242.43 614.574 242.43C627.877 242.43 637.765 244.787 644.237 249.501C650.749 254.215 654.025 260.268 654.065 267.659C654.105 275.25 652.327 281.322 648.732 285.877C645.136 290.431 640.642 294.726 635.248 298.761L612.476 315.42H656.462V331.121H574.123ZM658.955 284.498V288.933C658.955 273.672 663.11 262.126 671.42 254.295C679.77 246.425 691.515 242.49 706.657 242.49C722.038 242.49 733.843 246.345 742.073 254.056C750.343 261.766 754.478 273.392 754.478 288.933V284.618C754.478 300.718 750.243 312.744 741.774 320.694C733.344 328.644 721.638 332.619 706.657 332.619C691.275 332.619 679.47 328.524 671.24 320.334C663.05 312.104 658.955 300.159 658.955 284.498ZM684.004 284.858C684.004 295.645 685.882 303.675 689.637 308.948C693.393 314.222 699.086 316.859 706.717 316.859C714.347 316.859 720.04 314.222 723.796 308.948C727.591 303.675 729.489 295.685 729.489 284.978V288.573C729.489 278.386 727.551 270.855 723.676 265.981C719.84 261.067 714.187 258.61 706.717 258.61C699.246 258.61 693.593 261.067 689.757 265.981C685.922 270.855 684.004 278.366 684.004 288.513V284.858ZM756.491 331.121V318.237L798.26 287.315C801.536 284.598 804.533 281.602 807.249 278.326C809.966 275.01 811.324 271.774 811.324 268.618C811.284 264.423 810.265 261.686 808.268 260.408C806.31 259.089 802.455 258.43 796.702 258.43C790.67 258.43 786.535 259.349 784.297 261.187C782.06 263.025 780.941 266.301 780.941 271.015V273.052H756.252V271.015C756.252 262.306 759.807 255.374 766.919 250.22C774.07 245.027 784.078 242.43 796.942 242.43C810.246 242.43 820.133 244.787 826.605 249.501C833.117 254.215 836.393 260.268 836.433 267.659C836.473 275.25 834.696 281.322 831.1 285.877C827.504 290.431 823.01 294.726 817.616 298.761L794.844 315.42H838.83V331.121H756.491ZM845.698 294.326V292.528C845.698 277.187 852.09 265.042 864.875 256.093C877.699 247.144 895.916 242.67 919.527 242.67H924.501V259.209H921.805C904.546 259.209 891.702 261.986 883.272 267.539C874.842 273.052 870.627 282.221 870.627 295.045V296.304C870.627 303.855 872.325 309.228 875.721 312.424C879.157 315.62 883.931 317.218 890.044 317.218C896.196 317.218 900.97 316 904.366 313.563C907.802 311.126 909.52 307.27 909.52 301.997C909.52 297.043 907.842 293.407 904.486 291.09C901.17 288.733 896.576 287.555 890.703 287.555C884.431 287.555 879.537 288.833 876.021 291.39C872.545 293.947 870.807 297.802 870.807 302.956H861.459C861.459 294.166 865.154 287.315 872.545 282.401C879.936 277.487 888.346 275.03 897.774 275.03C909 275.03 917.929 277.367 924.561 282.041C931.193 286.716 934.489 293.487 934.449 302.356C934.449 311.505 930.454 318.816 922.464 324.289C914.514 329.763 903.667 332.499 889.924 332.499C876.66 332.499 865.973 329.463 857.863 323.391C849.753 317.278 845.698 307.59 845.698 294.326Z" fill="#083F2A"></path></svg> 