<?xml version="1.0" encoding="UTF-8"?> <svg xmlns="http://www.w3.org/2000/svg" width="299" height="82" viewBox="0 0 299 82" fill="none"><path d="M39.0827 46.7242L41.4615 51.383C40.348 52.5647 38.7452 53.5268 36.6531 54.2696C34.5948 55.0123 32.4183 55.3837 30.1237 55.3837C24.691 55.3837 20.2875 53.7125 16.9131 50.3702C13.5387 47.028 11.8516 42.6054 11.8516 37.1025C11.8516 31.8021 13.4544 27.4301 16.66 23.9866C19.8657 20.543 24.303 18.8213 29.9719 18.8213C34.5272 18.8213 38.1209 20.0198 40.7529 22.4168L37.9691 27.0251C35.5733 25.4383 32.9075 24.6449 29.9719 24.6449C26.6313 24.6449 23.8642 25.7759 21.671 28.0378C19.5114 30.2998 18.4316 33.3213 18.4316 37.1025C18.4316 40.7823 19.562 43.787 21.8228 46.1164C24.1174 48.4121 27.0699 49.56 30.6805 49.56C33.8186 49.56 36.6193 48.6147 39.0827 46.7242ZM74.0191 32.0384L65.0602 54.8266C63.4405 58.7766 61.9895 61.4437 60.7072 62.8278C59.4587 64.2457 57.9741 64.9547 56.2531 64.9547C54.5997 64.9547 52.9631 64.3639 51.3434 63.1823L53.2161 58.7766C54.1272 59.3168 54.9202 59.5868 55.5951 59.5868C56.9786 59.5868 58.1428 58.4052 59.0875 56.042L59.5938 54.8266L49.0657 32.0384H56.0507L61.3653 44.4959C61.5677 45.0023 61.9389 46.0996 62.4788 47.7876C62.7488 46.3021 63.0187 45.188 63.2887 44.4454L67.3885 32.0384H74.0191ZM85.6064 52.8516V19.3783H91.4273V33.4563C93.1144 32.1397 95.1222 31.4814 97.4505 31.4814C100.791 31.4814 103.423 32.5617 105.346 34.7223C107.304 36.8492 108.282 39.6345 108.282 43.078C108.282 46.8254 107.101 49.8132 104.739 52.0414C102.411 54.2696 99.2557 55.3837 95.274 55.3837C93.4856 55.3837 91.6972 55.1473 89.9088 54.6747C88.1541 54.1683 86.72 53.5606 85.6064 52.8516ZM96.0838 36.9506C94.228 36.9506 92.6757 37.6764 91.4273 39.128V48.8004C92.642 49.5769 94.0255 49.9651 95.5777 49.9651C97.4673 49.9651 99.0196 49.3912 100.234 48.2433C101.449 47.0618 102.057 45.475 102.057 43.4832C102.057 41.39 101.483 39.7864 100.336 38.6723C99.222 37.5245 97.8048 36.9506 96.0838 36.9506ZM139.302 48.4459L140.972 52.5478C138.745 54.4383 135.843 55.3837 132.266 55.3837C128.588 55.3837 125.619 54.2864 123.358 52.092C121.131 49.8976 120.017 47.0111 120.017 43.4325C120.017 40.0227 121.114 37.1868 123.308 34.9249C125.501 32.6292 128.42 31.4814 132.064 31.4814C135.067 31.4814 137.614 32.4773 139.707 34.4692C141.799 36.4273 142.845 38.9592 142.845 42.0652C142.845 43.3481 142.727 44.3947 142.49 45.2049H126.041C126.277 46.893 127.019 48.2096 128.267 49.1549C129.516 50.0664 131.051 50.5222 132.874 50.5222C135.438 50.5222 137.581 49.8301 139.302 48.4459ZM131.811 36.3428C128.504 36.3428 126.513 37.9971 125.838 41.3056H137.024C137.058 39.8877 136.603 38.7061 135.658 37.7608C134.713 36.8156 133.43 36.3428 131.811 36.3428ZM156.036 54.8266V32.0384H160.086V34.7223C161.469 32.663 163.376 31.6333 165.805 31.6333C167.392 31.6333 168.572 31.9203 169.348 32.4942L167.931 36.2922C166.952 35.7183 165.923 35.4313 164.844 35.4313C162.785 35.4313 161.199 36.5116 160.086 38.6723V54.8266H156.036ZM208.213 54.8266V38.0646H186.094V54.8266H183.31V19.3783H186.094V35.4313H208.213V19.3783H210.997V54.8266H208.213ZM252.023 19.3783V39.989C252.023 45.0868 250.758 48.9016 248.227 51.4337C245.696 53.9657 242.491 55.2318 238.61 55.2318C234.325 55.2318 230.85 53.8982 228.184 51.2311C225.551 48.5303 224.236 44.6647 224.236 39.6345V19.3783H227.02V39.128C227.02 43.3819 228.066 46.6904 230.158 49.0536C232.25 51.4168 235.067 52.5985 238.61 52.5985C241.85 52.5985 244.431 51.5012 246.355 49.3068C248.278 47.0787 249.239 43.7701 249.239 39.3813V19.3783H252.023ZM265.283 54.7759V19.4289C270.548 19.2939 273.652 19.2264 274.597 19.2264C282.054 19.2264 285.783 22.1467 285.783 27.9872C285.783 30.2154 285.125 32.0384 283.808 33.4563C282.526 34.8742 280.89 35.8196 278.899 36.2922V36.3935C281.497 36.6973 283.522 37.592 284.973 39.0775C286.424 40.5292 287.15 42.4704 287.15 44.9011C287.15 48.2771 286.002 50.8092 283.708 52.4971C281.413 54.1514 278.359 54.9785 274.546 54.9785C271.138 54.9785 268.051 54.9111 265.283 54.7759ZM274.799 37.9634H268.067V52.1427C271.846 52.2777 274.04 52.3452 274.648 52.3452C277.752 52.3452 280.147 51.7038 281.834 50.4209C283.522 49.138 284.366 47.2475 284.366 44.7492C284.366 42.5885 283.539 40.9173 281.885 39.7358C280.232 38.5542 277.87 37.9634 274.799 37.9634ZM274.496 21.8597C273.045 21.8597 270.902 21.9104 268.067 22.0116V35.482H274.951C277.245 35.482 279.152 34.8575 280.67 33.6083C282.223 32.3592 282.999 30.6711 282.999 28.5442C282.999 24.0879 280.165 21.8597 274.496 21.8597Z" fill="black"></path></svg> 