<?xml version="1.0" encoding="UTF-8"?> <svg xmlns="http://www.w3.org/2000/svg" width="233" height="160" viewBox="0 0 233 160" fill="none"><g clip-path="url(#clip0_3907_1131)"><rect width="232.064" height="146.221" transform="translate(0 6.88965)" fill="black"></rect><path d="M48.7464 124.018C48.6575 125.974 48.2574 127.871 47.546 129.709C46.8347 131.517 45.7973 133.147 44.4339 134.599C43.0705 136.022 41.3514 137.148 39.2767 137.978C37.2019 138.779 34.7715 139.179 31.9854 139.179C29.3771 139.179 26.9319 138.808 24.6496 138.067C22.3674 137.297 20.3519 136.185 18.6032 134.733C16.8545 133.251 15.4763 131.428 14.4685 129.264C13.4904 127.101 13.0014 124.596 13.0014 121.751C13.0014 118.905 13.4904 116.401 14.4685 114.237C15.4763 112.073 16.8693 110.265 18.6477 108.813C20.4557 107.331 22.5304 106.22 24.8719 105.479C27.2431 104.708 29.7921 104.323 32.5189 104.323C36.2831 104.323 39.5138 104.886 42.211 106.012C44.9378 107.139 47.1311 108.695 48.7909 110.68C50.4507 112.666 51.5177 114.948 51.992 117.527H41.5885C41.3218 116.549 40.7586 115.719 39.8991 115.037C39.0692 114.326 38.0318 113.793 36.787 113.437C35.5421 113.052 34.1491 112.859 32.6078 112.859C30.7109 112.859 29.0659 113.185 27.6729 113.837C26.3094 114.489 25.2573 115.467 24.5163 116.771C23.7753 118.075 23.4048 119.735 23.4048 121.751C23.4048 123.766 23.8049 125.456 24.6052 126.819C25.4351 128.182 26.6058 129.205 28.1175 129.887C29.6587 130.568 31.4667 130.909 33.5415 130.909C35.5569 130.909 37.3353 130.643 38.8765 130.109C40.4474 129.576 41.7071 128.79 42.6556 127.753C43.604 126.715 44.1672 125.426 44.345 123.885L48.7464 124.018ZM34.1639 127.13V120.684H52.3032V138.423H45.0563L43.5447 125.441L45.4565 127.13H34.1639ZM56.8703 104.189H67.0514V138.423H56.8703V104.189ZM87.1907 139.179C83.9007 139.179 81.0108 138.616 78.5211 137.489C76.0314 136.363 74.0901 134.792 72.697 132.777C71.304 130.731 70.6074 128.375 70.6074 125.708C70.6074 122.981 71.304 120.61 72.697 118.594C74.0901 116.549 76.0314 114.978 78.5211 113.881C81.0108 112.755 83.9155 112.192 87.2351 112.192C90.5251 112.192 93.4149 112.755 95.9046 113.881C98.3943 114.978 100.321 116.549 101.684 118.594C103.077 120.61 103.774 122.981 103.774 125.708C103.774 128.375 103.077 130.731 101.684 132.777C100.321 134.792 98.3943 136.363 95.9046 137.489C93.4149 138.616 90.5103 139.179 87.1907 139.179ZM87.2351 131.71C88.5689 131.71 89.6952 131.472 90.614 130.998C91.5625 130.524 92.2738 129.842 92.748 128.953C93.2519 128.034 93.5038 126.952 93.5038 125.708C93.5038 124.433 93.2519 123.351 92.748 122.462C92.2738 121.543 91.5625 120.847 90.614 120.372C89.6952 119.898 88.5689 119.661 87.2351 119.661C85.9013 119.661 84.7602 119.898 83.8118 120.372C82.8633 120.847 82.1371 121.543 81.6333 122.462C81.159 123.351 80.9219 124.418 80.9219 125.663C80.9219 126.938 81.159 128.034 81.6333 128.953C82.1371 129.842 82.8633 130.524 83.8118 130.998C84.7602 131.472 85.9013 131.71 87.2351 131.71ZM107.321 104.189H117.502V119.883L116.257 122.462V129.442L117.502 131.798V138.423H107.321V104.189ZM114.39 125.708C114.746 122.951 115.516 120.565 116.702 118.55C117.917 116.505 119.473 114.934 121.37 113.837C123.267 112.74 125.401 112.192 127.772 112.192C130.291 112.192 132.485 112.755 134.352 113.881C136.219 114.978 137.686 116.549 138.753 118.594C139.82 120.61 140.354 122.981 140.354 125.708C140.354 128.375 139.82 130.731 138.753 132.777C137.686 134.792 136.219 136.363 134.352 137.489C132.485 138.616 130.291 139.179 127.772 139.179C125.371 139.179 123.222 138.63 121.325 137.534C119.458 136.407 117.932 134.836 116.746 132.821C115.561 130.776 114.775 128.405 114.39 125.708ZM130.039 125.708C130.039 124.581 129.802 123.588 129.328 122.729C128.884 121.84 128.246 121.143 127.416 120.639C126.616 120.135 125.682 119.883 124.615 119.883C123.519 119.883 122.452 120.135 121.414 120.639C120.407 121.143 119.532 121.84 118.791 122.729C118.05 123.588 117.487 124.581 117.102 125.708C117.487 126.834 118.05 127.827 118.791 128.686C119.532 129.546 120.407 130.228 121.414 130.731C122.452 131.235 123.519 131.487 124.615 131.487C125.682 131.487 126.616 131.235 127.416 130.731C128.246 130.228 128.884 129.546 129.328 128.686C129.802 127.827 130.039 126.834 130.039 125.708ZM166.683 138.423L165.483 129.353L166.728 125.708L165.483 122.106L166.683 112.948H177.265L175.575 125.663L177.265 138.423H166.683ZM168.951 125.708C168.595 128.405 167.81 130.776 166.594 132.821C165.409 134.836 163.868 136.407 161.971 137.534C160.103 138.63 157.955 139.179 155.524 139.179C153.064 139.179 150.886 138.616 148.989 137.489C147.092 136.363 145.61 134.792 144.543 132.777C143.505 130.731 142.987 128.375 142.987 125.708C142.987 122.981 143.505 120.61 144.543 118.594C145.61 116.549 147.092 114.978 148.989 113.881C150.886 112.755 153.064 112.192 155.524 112.192C157.955 112.192 160.103 112.74 161.971 113.837C163.868 114.934 165.424 116.505 166.639 118.55C167.854 120.565 168.625 122.951 168.951 125.708ZM153.257 125.708C153.257 126.834 153.479 127.827 153.924 128.686C154.398 129.546 155.05 130.228 155.88 130.731C156.71 131.235 157.658 131.487 158.725 131.487C159.822 131.487 160.874 131.235 161.882 130.731C162.89 130.228 163.779 129.546 164.549 128.686C165.32 127.827 165.883 126.834 166.239 125.708C165.883 124.581 165.32 123.588 164.549 122.729C163.779 121.84 162.89 121.143 161.882 120.639C160.874 120.135 159.822 119.883 158.725 119.883C157.658 119.883 156.71 120.135 155.88 120.639C155.05 121.143 154.398 121.84 153.924 122.729C153.479 123.588 153.257 124.581 153.257 125.708ZM181.26 104.189H191.441V138.423H181.26V104.189Z" fill="white"></path><path d="M21.7235 76.0224H33.3718C34.6759 76.0224 35.6837 75.726 36.395 75.1332C37.136 74.5404 37.5065 73.6809 37.5065 72.5546C37.5065 71.4283 37.136 70.5687 36.395 69.9759C35.6837 69.3831 34.6759 69.0868 33.3718 69.0868H20.2564L24.9246 64.2852V94.9619H14.5656V61.6176H34.9279C37.5065 61.6176 39.7739 62.077 41.7301 62.9959C43.6863 63.9147 45.2127 65.1892 46.3094 66.8193C47.406 68.4495 47.9544 70.3612 47.9544 72.5546C47.9544 74.6886 47.406 76.5855 46.3094 78.2453C45.2127 79.8755 43.6863 81.15 41.7301 82.0688C39.7739 82.958 37.5065 83.4026 34.9279 83.4026H21.7235V76.0224ZM26.1694 79.3568H37.6843L49.1547 94.9619H37.2842L26.1694 79.3568ZM52.9463 94.9619V61.6176H63.2163V86.8259L60.5488 84.6474L78.2879 61.6176H89.1359L62.3271 94.9619H52.9463ZM68.9071 79.3568L76.5096 73.2214L89.625 94.9619H77.8878L68.9071 79.3568ZM89.2127 84.025H99.705C99.8236 84.7956 100.194 85.4773 100.816 86.0701C101.469 86.6333 102.343 87.0778 103.44 87.4039C104.536 87.7003 105.826 87.8485 107.308 87.8485C109.353 87.8485 110.938 87.6114 112.065 87.1371C113.221 86.6629 113.799 85.9367 113.799 84.9586C113.799 84.2769 113.472 83.7286 112.82 83.3136C112.168 82.8691 110.879 82.5727 108.952 82.4245L103.084 81.9354C98.2823 81.5797 94.7997 80.5424 92.636 78.8233C90.502 77.0746 89.435 74.7331 89.435 71.7988C89.435 69.398 90.1315 67.3973 91.5245 65.7968C92.9176 64.1666 94.859 62.9366 97.3487 62.1067C99.8384 61.2768 102.773 60.8618 106.152 60.8618C109.412 60.8618 112.302 61.3212 114.821 62.2401C117.37 63.1589 119.386 64.463 120.868 66.1525C122.379 67.8123 123.209 69.7536 123.357 71.9766H112.865C112.746 71.3245 112.405 70.7614 111.842 70.2871C111.309 69.7833 110.538 69.398 109.53 69.1312C108.523 68.8645 107.322 68.7311 105.929 68.7311C104.092 68.7311 102.624 68.9534 101.528 69.398C100.461 69.8426 99.9273 70.5094 99.9273 71.3986C99.9273 72.0507 100.239 72.5842 100.861 72.9992C101.513 73.4141 102.699 73.6957 104.418 73.8439L110.864 74.3774C114.065 74.6145 116.644 75.1184 118.6 75.889C120.586 76.63 122.023 77.6525 122.913 78.9567C123.802 80.2312 124.246 81.8465 124.246 83.8027C124.246 86.1738 123.535 88.2634 122.112 90.0714C120.69 91.8498 118.689 93.2428 116.11 94.2506C113.561 95.2287 110.568 95.7177 107.13 95.7177C103.603 95.7177 100.505 95.2287 97.8377 94.2506C95.1702 93.2725 93.0806 91.9091 91.569 90.1603C90.0574 88.382 89.272 86.3369 89.2127 84.025Z" fill="white"></path></g><defs><clipPath id="clip0_3907_1131"><rect width="232.064" height="146.221" fill="white" transform="translate(0 6.88965)"></rect></clipPath></defs></svg> 